# xmcd CD database file
#
# Track frame offsets:
#	150
#	17049
#	34848
#	56203
#	73273
#	103419
#	123300
#	142567
#	158010
#	173908
#	185870
#	208420
#	237917
#	249630
#
# Disc length: 3641 seconds
#
# Revision: 0
# Processed by: cddbd v1.5.2PL0 Copyright (c) Steve Scherf et al.
# Submitted via: CDex 1.51
#
DISCID=d20e370e
DTITLE=Dave Ruosch and Christina Jaccard - Lady Sings The Blues
DYEAR=2016
DGENRE=Blues
TTITLE0=As Long As I'm Moving ()Charles E. Calhoun)
TTITLE1=Love Me Like A Man (Chris Smither,Bonnie Raitt)
TTITLE2=What Good Am I Without You (Don Rodney,Sammy Gallop)
TTITLE3=Empty Bed Blues (Jimmy C. Johnson)
TTITLE4=Lady Sings the Blues (Herbie Nichols,Billy Hollyday)
TTITLE5=Sometimes I Have a Heartache (Mae Willie Thornton)
TTITLE6=Rough Lover (John Leslie McFarland)
TTITLE7=I Don't Care Who Knows (Willie Dixon)
TTITLE8=Baby Won't You Please Come Home (Charles Warfield,Clarence Williams)
TTITLE9=Sweet Baby of Mine (Bobby Sharp)
TTITLE10=Someone to Watch Over Me (Ira and George Gershwin)
TTITLE11=Old Man River (Jerome Kern,Oscar Hammerstein)
TTITLE12=Baby Bay Every Night (Scott Johnson,Ronnie Rae,Ed Townsend)
TTITLE13=I'd Rather Go BLind (Billie Foster,Ellington Jordan)
EXTD=YEAR: 2016
EXTT0=
EXTT1=
EXTT2=
EXTT3=
EXTT4=
EXTT5=
EXTT6=
EXTT7=
EXTT8=
EXTT9=
EXTT10=
EXTT11=
EXTT12=
EXTT13=
PLAYORDER=
